<svg version="1.2" xmlns="http://www.w3.org/2000/svg" viewBox="0 0 512 512" width="512" height="512">
	<style>
		.s0 { fill: #fe7e00 } 
		.s1 { fill: #001f4d } 
		.s2 { fill: #fc8602 } 
		.s3 { fill: #fcd800 } 
		.s4 { fill: #ffffff } 
		.s5 { fill: #d2330b } 
		.s6 { fill: #f76d00 } 
		.s7 { fill: #06d2f3 } 
		.s8 { fill: #0575c7 } 
		.s9 { fill: #0060be } 
		.s10 { fill: #003a88 } 
	</style>
	<g id="CABEZA">
		<path id="Forma 10" fill-rule="evenodd" class="s0" d="m341.74 96.14c0 0-15.42-7.49-30.84-21.56-15.42-14.07-16.47-44.32 3.14-34.88 19.62 9.43 50.91 24.1 75.61 52.25 24.71 28.15-47.91 4.19-47.91 4.19z"/>
		<path id="Forma 11" fill-rule="evenodd" class="s1" d="m319.39 81.62c-22.01-14-45.81-50.2-41.91-52.1 3.9-1.9 34.37 8.8 36.81 10.29-1.51 0.9-6.21 11.01 5.1 41.81z"/>
		<path id="Forma 9" fill-rule="evenodd" class="s2" d="m255.4 114.26c0 0 9.06 3.18 45.22 10.44-5.47 5.46-23.67 21.8-23.67 21.8l1.26 5.07 54.21-20.7 2.4-10.95-24.84-8.94-72.1-29.91-10.68-0.8c0 0 3.69 28 28.2 33.99z"/>
		<path id="Forma 7" fill-rule="evenodd" class="s3" d="m330.26 121.84c0 0-65.25-7.01-101.99-39.39l-1.93-15.23c0 0 29.24 1.93 51.48 8.46 22.23 6.52 47.14 20.36 56.55 22.23 74.37-24.83 105.95 17.2 110.21 43.51 1.43 6.95 15.69 22.84 16.09 26.07 0.41 3.23 1.59 27.35-17.65 43.77-82.88-97.94-218.98-29.58-218.98-29.58 0 0 37.34-21.17 53.05-35.43 23.45-4.83 28.64-7.01 53.17-24.41z"/>
		<path id="Forma 15" fill-rule="evenodd" class="s1" d="m448.61 162.8c-0.03 1.76 7.97 7.22 11.17 5.71 2.01-0.94 2.07-6.9-0.44-9.1-1.59-1.39-10.67-0.44-10.73 3.39z"/>
		<path id="Forma 13" fill-rule="evenodd" class="s1" d="m398.01 145.16c0 0-0.31-14.48 12.2-14.48 11.43 0 13.68 13.88 13.58 17.35-0.1 3.47-0.89 13.59-11 13.09-10.12-0.49-14.78-9.83-14.78-15.96z"/>
		<path id="Forma 14" fill-rule="evenodd" class="s4" d="m415.64 146.78c-2.66 0.67-5.51-1.39-6.39-4.61-0.87-3.22 0.57-6.37 3.23-7.04 2.66-0.67 5.52 1.39 6.39 4.61 0.88 3.22-0.57 6.37-3.23 7.04z"/>
		<path id="Forma 12" fill-rule="evenodd" class="s5" d="m403.97 178.31c5.81-11.45-13.82-23.07-30.58-13.12 13.14 3.96 30.39 12.93 30.58 13.12z"/>
		<path id="Forma 8" fill-rule="evenodd" class="s1" d="m229.55 67.51c0 0-30.97-3.57-43.11-0.04-12.15 3.53 39.64 39.54 69.01 46.8-0.1 0.21-24.82-23.99-25.9-46.76z"/>
	</g>
	<g id="COLA">
		<path id="Forma 5" fill-rule="evenodd" class="s3" d="m123.1 247.89c0 0 25.43-27.31 48.57-37.73 0.21-0.21 7.92-12.51 7.92-12.51l-29.39-12.72 44.82-52.32-154.89-85.47 16.68 93.39 69.21 19.6-24.81 42.31 41.48 10.64z"/>
		<path id="Forma 6" fill-rule="evenodd" class="s6" d="m147.45 225.64l11.75-21.2-32.83-10.67 28.02-45.4-106.79-59.5 9.22 51.67 69.18 19.6-24.91 42.36 41.49 10.6-19.56 34.78z"/>
	</g>
	<g id="LETRA">
		<path id="Forma 4" fill-rule="evenodd" class="s7" d="m442.98 348.65c52.1-96.68-44.11-252.26-253.35-134.72 17.11 4.91 37.6-7.38 37.6-7.38l101.96-3.59 50.73 11.78 31.25 32.28 16.91 55.34c0 0-23.88 113.76 14.9 46.29z"/>
		<path id="Forma 3" fill-rule="evenodd" class="s8" d="m407.48 327.3c0 0 31.21-71.35-42.7-106.76-73.91-35.42-175.85 17.55-220.19 57.9-44.35 40.34-48.66 60.97-46.2 80.68 2.47 19.71 20.51 40.55 54.88 46.31-35.75 2.8-120.54-34.76-27.47-140.85 152.89-158.22 339.01-62.39 322.25 73.23-41.65 45.02-55.33 55.42-55.33 55.42l-53.86 12.2 18.03-19.49 40.33-34.93z"/>
		<path id="Forma 1" fill-rule="evenodd" class="s9" d="m160.39 487.39c-1.75-0.93 13.27-48.76 26.98-100.74 12.19-46.16 26.12-75.87 47.45-93.29 2.6-2.16-2.33 51.33-0.16 67.35 2.07 15.31 8.82 32.65 35.36 36.3 26.55 3.64 20 17.25-4.25 14.59-22.68-3.82-47.68-21.39-50.46-17.63-3.85 2.43-31.21 90.18-31.21 90.18-13.17 4.86-21.95 4.16-23.71 3.24z"/>
		<path id="Forma 2" fill-rule="evenodd" class="s10" d="m211.27 386.29c0 0 17.76 9.36 54.53 10.65 20.15 0.99 72.06-2.63 103.38-25.35 7.38-5.36 29.97-19.86 37.99-43.92 2.16-6.48-7.44 50.22-58.61 72.94 38.37-11.26 90.5-51.93 87.25-107.12-3.24-55.18-32.03-69.38-33.11-73.01 131.55 100.47-13.28 236.66-162.03 198.33-0.79-0.71-1.47-0.21-1.57 0.26-8.83 53.37-58.33 66.19-58.33 66.19z"/>
	</g>
</svg>